<mxfile host="app.diagrams.net" agent="Mozilla/5.0 (Windows NT 10.0; Win64; x64) AppleWebKit/537.36 (KHTML, like Gecko) Chrome/139.0.0.0 Safari/537.36" version="28.2.5">
  <diagram name="第 1 页" id="lwgN3nTpxnXR6LJu-WgM">
    <mxGraphModel dx="1426" dy="751" grid="1" gridSize="10" guides="1" tooltips="1" connect="1" arrows="1" fold="1" page="1" pageScale="1" pageWidth="827" pageHeight="1169" math="0" shadow="0">
      <root>
        <mxCell id="0" />
        <mxCell id="1" parent="0" />
        <mxCell id="U-Pgk_PlcwWY_m-1Yj1F-13" value="" style="group" vertex="1" connectable="0" parent="1">
          <mxGeometry y="280" width="440" height="120" as="geometry" />
        </mxCell>
        <mxCell id="xY1tnYph0VsPIf3Wbw8z-1" value="&lt;font style=&quot;vertical-align: inherit;&quot; dir=&quot;auto&quot;&gt;&lt;font style=&quot;vertical-align: inherit;&quot; dir=&quot;auto&quot;&gt;Hyper-V&lt;/font&gt;&lt;/font&gt;&lt;div&gt;&lt;font style=&quot;vertical-align: inherit;&quot; dir=&quot;auto&quot;&gt;&lt;font style=&quot;vertical-align: inherit;&quot; dir=&quot;auto&quot;&gt;虚拟化平台&lt;/font&gt;&lt;/font&gt;&lt;/div&gt;" style="rounded=0;whiteSpace=wrap;html=1;" parent="U-Pgk_PlcwWY_m-1Yj1F-13" vertex="1">
          <mxGeometry y="40" width="120" height="40" as="geometry" />
        </mxCell>
        <mxCell id="U-Pgk_PlcwWY_m-1Yj1F-1" value="&lt;font style=&quot;vertical-align: inherit;&quot; dir=&quot;auto&quot;&gt;&lt;font style=&quot;vertical-align: inherit;&quot; dir=&quot;auto&quot;&gt;&lt;font style=&quot;vertical-align: inherit;&quot; dir=&quot;auto&quot;&gt;&lt;font style=&quot;vertical-align: inherit; font-size: 12px;&quot; dir=&quot;auto&quot;&gt;基础虚拟化平台&lt;/font&gt;&lt;/font&gt;&lt;/font&gt;&lt;/font&gt;" style="text;strokeColor=none;fillColor=none;html=1;fontSize=24;fontStyle=1;verticalAlign=middle;align=center;" vertex="1" parent="U-Pgk_PlcwWY_m-1Yj1F-13">
          <mxGeometry width="120" height="40" as="geometry" />
        </mxCell>
        <mxCell id="U-Pgk_PlcwWY_m-1Yj1F-2" value="" style="endArrow=classic;html=1;rounded=0;" edge="1" parent="U-Pgk_PlcwWY_m-1Yj1F-13" source="xY1tnYph0VsPIf3Wbw8z-1">
          <mxGeometry width="50" height="50" relative="1" as="geometry">
            <mxPoint x="390" y="100" as="sourcePoint" />
            <mxPoint x="160" y="60" as="targetPoint" />
          </mxGeometry>
        </mxCell>
        <mxCell id="U-Pgk_PlcwWY_m-1Yj1F-3" value="&lt;font style=&quot;vertical-align: inherit;&quot; dir=&quot;auto&quot;&gt;&lt;font style=&quot;vertical-align: inherit;&quot; dir=&quot;auto&quot;&gt;VBS&lt;/font&gt;&lt;/font&gt;&lt;div&gt;&lt;span style=&quot;background-color: transparent; color: light-dark(rgb(0, 0, 0), rgb(255, 255, 255));&quot;&gt;&lt;font style=&quot;vertical-align: inherit;&quot; dir=&quot;auto&quot;&gt;&lt;font style=&quot;vertical-align: inherit;&quot; dir=&quot;auto&quot;&gt;基于虚拟化的安全性&lt;/font&gt;&lt;/font&gt;&lt;/span&gt;&lt;/div&gt;" style="rounded=0;whiteSpace=wrap;html=1;" vertex="1" parent="U-Pgk_PlcwWY_m-1Yj1F-13">
          <mxGeometry x="160" y="40" width="120" height="40" as="geometry" />
        </mxCell>
        <mxCell id="U-Pgk_PlcwWY_m-1Yj1F-4" value="&lt;span style=&quot;font-size: 12px;&quot;&gt;&lt;font style=&quot;vertical-align: inherit;&quot; dir=&quot;auto&quot;&gt;&lt;font style=&quot;vertical-align: inherit;&quot; dir=&quot;auto&quot;&gt;实现安全目标的框架&lt;/font&gt;&lt;/font&gt;&lt;/span&gt;" style="text;strokeColor=none;fillColor=none;html=1;fontSize=24;fontStyle=1;verticalAlign=middle;align=center;" vertex="1" parent="U-Pgk_PlcwWY_m-1Yj1F-13">
          <mxGeometry x="160" width="120" height="40" as="geometry" />
        </mxCell>
        <mxCell id="U-Pgk_PlcwWY_m-1Yj1F-5" value="" style="endArrow=none;html=1;rounded=0;exitX=1;exitY=0.5;exitDx=0;exitDy=0;" edge="1" parent="U-Pgk_PlcwWY_m-1Yj1F-13" source="U-Pgk_PlcwWY_m-1Yj1F-3">
          <mxGeometry width="50" height="50" relative="1" as="geometry">
            <mxPoint x="390" y="100" as="sourcePoint" />
            <mxPoint x="300" y="60" as="targetPoint" />
          </mxGeometry>
        </mxCell>
        <mxCell id="U-Pgk_PlcwWY_m-1Yj1F-6" value="" style="endArrow=none;html=1;rounded=0;" edge="1" parent="U-Pgk_PlcwWY_m-1Yj1F-13">
          <mxGeometry width="50" height="50" relative="1" as="geometry">
            <mxPoint x="300" y="60" as="sourcePoint" />
            <mxPoint x="300" y="100" as="targetPoint" />
          </mxGeometry>
        </mxCell>
        <mxCell id="U-Pgk_PlcwWY_m-1Yj1F-7" value="" style="endArrow=none;html=1;rounded=0;" edge="1" parent="U-Pgk_PlcwWY_m-1Yj1F-13">
          <mxGeometry width="50" height="50" relative="1" as="geometry">
            <mxPoint x="300" y="20" as="sourcePoint" />
            <mxPoint x="300" y="60" as="targetPoint" />
          </mxGeometry>
        </mxCell>
        <mxCell id="U-Pgk_PlcwWY_m-1Yj1F-8" value="" style="endArrow=none;html=1;rounded=0;" edge="1" parent="U-Pgk_PlcwWY_m-1Yj1F-13">
          <mxGeometry width="50" height="50" relative="1" as="geometry">
            <mxPoint x="300" y="20" as="sourcePoint" />
            <mxPoint x="320" y="20" as="targetPoint" />
          </mxGeometry>
        </mxCell>
        <mxCell id="U-Pgk_PlcwWY_m-1Yj1F-9" value="" style="endArrow=none;html=1;rounded=0;" edge="1" parent="U-Pgk_PlcwWY_m-1Yj1F-13">
          <mxGeometry width="50" height="50" relative="1" as="geometry">
            <mxPoint x="300" y="100" as="sourcePoint" />
            <mxPoint x="320" y="100" as="targetPoint" />
          </mxGeometry>
        </mxCell>
        <mxCell id="U-Pgk_PlcwWY_m-1Yj1F-10" value="&lt;div&gt;Device Guard&lt;/div&gt;&lt;div&gt;设备守护&lt;/div&gt;" style="rounded=0;whiteSpace=wrap;html=1;" vertex="1" parent="U-Pgk_PlcwWY_m-1Yj1F-13">
          <mxGeometry x="320" width="120" height="40" as="geometry" />
        </mxCell>
        <mxCell id="U-Pgk_PlcwWY_m-1Yj1F-11" value="&lt;div&gt;Credential Guard&lt;/div&gt;&lt;div&gt;凭据守护&lt;/div&gt;" style="rounded=0;whiteSpace=wrap;html=1;" vertex="1" parent="U-Pgk_PlcwWY_m-1Yj1F-13">
          <mxGeometry x="320" y="80" width="120" height="40" as="geometry" />
        </mxCell>
        <mxCell id="U-Pgk_PlcwWY_m-1Yj1F-12" value="&lt;span style=&quot;font-size: 12px;&quot;&gt;&lt;font style=&quot;vertical-align: inherit;&quot; dir=&quot;auto&quot;&gt;&lt;font style=&quot;vertical-align: inherit;&quot; dir=&quot;auto&quot;&gt;&lt;font style=&quot;vertical-align: inherit;&quot; dir=&quot;auto&quot;&gt;&lt;font style=&quot;vertical-align: inherit;&quot; dir=&quot;auto&quot;&gt;具体实现&lt;/font&gt;&lt;/font&gt;&lt;/font&gt;&lt;/font&gt;&lt;/span&gt;" style="text;strokeColor=none;fillColor=none;html=1;fontSize=24;fontStyle=1;verticalAlign=middle;align=center;" vertex="1" parent="U-Pgk_PlcwWY_m-1Yj1F-13">
          <mxGeometry x="320" y="40" width="120" height="30" as="geometry" />
        </mxCell>
      </root>
    </mxGraphModel>
  </diagram>
</mxfile>
